<svg width="273" height="41" viewBox="0 0 273 41" fill="none" xmlns="http://www.w3.org/2000/svg">
<path d="M41.3 9.88366e-06H25.2C23.2 9.88366e-06 23 0.90001 23 0.90001L0 40.8H15.6C16.3 39.7 18.1 36.5 20.3 32.6H46.3L51.1 40.8H66.1L42.9 0.80001C42.3 -0.0999901 41.3 9.88366e-06 41.3 9.88366e-06ZM41.5 25.1C38.7 25.1 25.4 25.1 25.1 25.1C24.7 25.1 24.8 24.7 24.9 24.6C28.8 17.7 32.5 11.3 32.7 11C33.1 10.4 33.8 11 33.8 11L41.8 24.7C41.8 24.7 41.8 25.1 41.5 25.1Z" fill="white"/>
<path d="M262 16.3C251.9 16.3 231.8 16.3 230.1 16.3C227.8 16.3 227.9 14.2 227.9 14.2V11.9C227.9 11.9 227.8 10.1 229.9 10.1C232.1 10.1 265.2 10.1 265.2 10.1L273.3 0.70001H224.5C224.5 0.70001 213.6 0.90001 213.6 8.00001C213.6 11.6 213.6 14.4 213.6 17.9C213.6 25 222.3 24.5 222.3 24.5C222.3 24.5 250.2 24.5 251.8 24.5C253.3 24.5 253.4 26.3 253.4 26.3V29.9C253.4 29.9 253.8 32.6 251.9 32.6C250 32.6 212.3 32.6 212.3 32.6C212.3 32.6 209.6 32.4 208.1 29.8L191.4 0.80001C190.8 -0.0999901 189.8 9.88366e-06 189.8 9.88366e-06H173.7C171.7 9.88366e-06 171.5 0.90001 171.5 0.90001L155.4 28.8C154.4 30.3 153.4 31.9 151.4 31.9C145.7 31.9 130.6 31.9 127.4 31.9C123.4 31.9 123.4 26.6 123.4 26.6V1.60001C123.4 1.60001 123.4 9.88366e-06 122.1 9.88366e-06C120.8 9.88366e-06 47.1 9.88366e-06 47.1 9.88366e-06L52.8 9.00001C52.8 9.00001 73.5 9.00001 74.3 9.00001C75.1 9.00001 75.2 10.1 75.2 10.1V40.7H89.1V10.1C89.1 10.1 89.1 9.00001 89.9 9.00001C90.6 9.00001 104.9 9.00001 108.6 9.00001C109.4 9.00001 109.5 10.1 109.5 10.1V28.2C109.5 28.2 108.6 40.7 120.7 40.7C129.8 40.7 149.9 40.7 159.2 40.7C162.2 40.7 165.3 38.6 166.3 36.8C167 35.5 167.9 34.1 168.8 32.5H194.8L197.8 37.7C197.8 37.7 199.5 40.8 203.6 40.8C207.2 40.8 244 40.8 258.6 40.8C267.2 40.8 267.7 32.1 267.7 32.1V22.9C267.7 22.8 267.5 16.3 262 16.3ZM190 25.1C187.2 25.1 173.9 25.1 173.6 25.1C173.2 25.1 173.3 24.7 173.4 24.6C177 18.3 181.1 11.2 181.1 11.2C181.4 10.7 182.1 10.6 182.5 11.2L190.4 24.7C190.3 24.7 190.5 25.1 190 25.1Z" fill="white"/>
</svg>
