<svg version="1.1" id="Layer_1" xmlns="http://www.w3.org/2000/svg" xmlns:xlink="http://www.w3.org/1999/xlink" x="0px" y="0px"
	 viewBox="0 0 375.4 41" style="enable-background:new 0 0 375.4 41;" xml:space="preserve" fill="white">
		<path d="M41.3,0H25.2c-2,0-2.2,0.9-2.2,0.9L0,40.8h15.6c0.7-1.1,2.5-4.3,4.7-8.2h26l4.8,8.2h15L42.9,0.8C42.3-0.1,41.3,0,41.3,0z
			 M41.5,25.1c-2.8,0-16.1,0-16.4,0c-0.4,0-0.3-0.4-0.2-0.5c3.9-6.9,7.6-13.3,7.8-13.6c0.4-0.6,1.1,0,1.1,0l8,13.7
			C41.8,24.7,41.8,25.1,41.5,25.1z"/>
		<path d="M262,16.3c-10.1,0-30.2,0-31.9,0c-2.3,0-2.2-2.1-2.2-2.1v-2.3c0,0-0.1-1.8,2-1.8c2.2,0,35.3,0,35.3,0l8.1-9.4h-48.8
			c0,0-10.9,0.2-10.9,7.3c0,3.6,0,6.4,0,9.9c0,7.1,8.7,6.6,8.7,6.6s27.9,0,29.5,0c1.5,0,1.6,1.8,1.6,1.8v3.6c0,0,0.4,2.7-1.5,2.7
			c-1.9,0-39.6,0-39.6,0s-2.7-0.2-4.2-2.8L191.4,0.8c-0.6-0.9-1.6-0.8-1.6-0.8h-16.1c-2,0-2.2,0.9-2.2,0.9l-16.1,27.9
			c-1,1.5-2,3.1-4,3.1c-5.7,0-20.8,0-24,0c-4,0-4-5.3-4-5.3V1.6c0,0,0-1.6-1.3-1.6c-1.3,0-75,0-75,0l5.7,9c0,0,20.7,0,21.5,0
			s0.9,1.1,0.9,1.1v30.6h13.9V10.1c0,0,0-1.1,0.8-1.1c0.7,0,15,0,18.7,0c0.8,0,0.9,1.1,0.9,1.1v18.1c0,0-0.9,12.5,11.2,12.5
			c9.1,0,29.2,0,38.5,0c3,0,6.1-2.1,7.1-3.9c0.7-1.3,1.6-2.7,2.5-4.3h26l3,5.2c0,0,1.7,3.1,5.8,3.1c3.6,0,40.4,0,55,0
			c8.6,0,9.1-8.7,9.1-8.7v-9.2C267.7,22.8,267.5,16.3,262,16.3z M190,25.1c-2.8,0-16.1,0-16.4,0c-0.4,0-0.3-0.4-0.2-0.5
			c3.6-6.3,7.7-13.4,7.7-13.4c0.3-0.5,1-0.6,1.4,0l7.9,13.5C190.3,24.7,190.5,25.1,190,25.1z"/>
		<path d="M304.8,12.1c1.5,0,2.9,0.4,4.1,1.3c1.2,0.9,2.1,2.1,2.6,3.6c0.1,0.4,0.3,0.8,0.4,1.3c0.1,0.4,0.2,0.9,0.2,1.4
			c0.1,0.5,0.1,1.1,0.1,1.8v0.4c0,0.7-0.1,1.3-0.1,1.8c-0.1,0.6-0.1,1-0.2,1.5c-0.1,0.5-0.2,0.9-0.4,1.3c-0.5,1.5-1.4,2.7-2.6,3.6
			c-1.2,0.9-2.6,1.3-4.1,1.3h-13.4v9c0,0.2-0.1,0.4-0.3,0.4h-5c-0.2,0-0.3-0.1-0.3-0.4v-28c0-0.2,0.1-0.3,0.3-0.3H304.8z M304,26.5
			c0.8,0,1.5-0.5,2.1-1.4c0.2-0.3,0.3-0.7,0.4-1.3c0.1-0.6,0.2-1.3,0.1-2.2c0-0.8,0-1.5-0.1-2.1c-0.1-0.6-0.3-1-0.4-1.3
			c-0.6-0.9-1.3-1.3-2.1-1.3h-12.6v9.5H304z"/>
		<path d="M335.9,12.1c0.9,0,1.8,0.2,2.6,0.5c0.8,0.3,1.6,0.8,2.2,1.4c0.6,0.6,1.2,1.4,1.6,2.2c0.4,0.9,0.7,1.8,0.7,2.8
			c0,0.3,0,0.7,0.1,1.2c0,0.5,0,1,0,1.5c0,0.5,0,1,0,1.5c0,0.5,0,0.9-0.1,1.2c-0.1,1-0.3,1.9-0.7,2.8c-0.4,0.8-0.9,1.6-1.5,2.2
			c-0.6,0.6-1.3,1.1-2.1,1.5c-0.8,0.4-1.6,0.5-2.6,0.5l6.9,8.8c0.1,0.1,0.1,0.2,0.1,0.4c-0.1,0.2-0.2,0.2-0.3,0.2h-5
			c-0.5,0-0.9-0.2-1.2-0.7l-6.7-8.7h-7.7v9c0,0.2-0.1,0.4-0.3,0.4h-5c-0.2,0-0.3-0.1-0.3-0.4v-28c0-0.2,0.1-0.3,0.3-0.3H335.9z
			 M335.1,26.5c0.7,0,1.3-0.3,1.6-0.9c0.4-0.6,0.6-1.3,0.7-2c0-0.2,0-0.5,0.1-0.8c0-0.3,0-0.7,0-1c0-0.4,0-0.7,0-1
			c0-0.3,0-0.6-0.1-0.9c-0.1-0.7-0.3-1.4-0.7-1.9c-0.4-0.6-0.9-0.9-1.6-0.9h-12.9v9.5H335.1z"/>
		<path d="M360.5,11.9c1.3,0,2.7,0,4,0.1c1.3,0.1,2.6,0.3,3.8,0.6c1.2,0.3,2.3,0.8,3.2,1.4c0.9,0.7,1.7,1.6,2.4,3
			c0.6,1.3,1,2.8,1.2,4.5c0.2,1.8,0.4,3.6,0.4,5.5c0,1.9-0.1,3.6-0.4,5.2c-0.2,1.6-0.6,3-1.2,4.1c-0.6,1.2-1.4,2.1-2.3,2.7
			c-0.9,0.6-2,1.1-3.2,1.4c-1.1,0.3-2.4,0.5-3.7,0.5c-1.3,0.1-2.7,0.1-4.1,0.1c-1.4,0-2.8,0-4.1-0.1c-1.3-0.1-2.5-0.2-3.7-0.5
			c-1.2-0.3-2.3-0.8-3.2-1.4c-1-0.6-1.7-1.5-2.3-2.7c-0.6-1.1-1-2.5-1.3-4.2c-0.3-1.6-0.4-3.4-0.4-5.2s0.1-3.6,0.4-5.4
			c0.3-1.8,0.7-3.3,1.3-4.6c0.6-1.3,1.4-2.3,2.3-2.9c1-0.7,2-1.2,3.2-1.5c1.2-0.3,2.5-0.5,3.8-0.6C357.9,11.9,359.2,11.9,360.5,11.9
			z M360.5,36c1,0,2,0,3,0c1,0,1.8-0.1,2.5-0.4c0.7-0.2,1.3-0.4,1.8-0.8c0.5-0.4,0.9-0.9,1.2-1.6c0.3-0.7,0.5-1.7,0.6-2.8
			c0.1-1.1,0.2-2.4,0.2-3.7c0-1.3-0.1-2.6-0.2-3.9c-0.1-1.2-0.3-2.3-0.6-3.2c-0.3-0.8-0.7-1.4-1.2-1.7c-0.5-0.4-1.1-0.6-1.7-0.8
			c-0.8-0.2-1.7-0.3-2.6-0.4c-1,0-1.9,0-2.9,0c-1,0-2,0-2.9,0c-1,0-1.8,0.2-2.6,0.4c-0.7,0.2-1.3,0.5-1.7,0.8
			c-0.5,0.4-0.9,0.9-1.1,1.7c-0.3,0.9-0.5,2-0.7,3.2c-0.1,1.2-0.2,2.5-0.2,3.8c0,1.3,0.1,2.6,0.2,3.7c0.1,1.1,0.3,2.1,0.6,2.9
			c0.3,0.7,0.6,1.2,1.1,1.6c0.5,0.3,1.1,0.6,1.8,0.8c0.7,0.2,1.6,0.3,2.5,0.4C358.4,36,359.4,36,360.5,36z"/>
</svg>
