<svg version="1.1" id="Layer_1" xmlns="http://www.w3.org/2000/svg" xmlns:xlink="http://www.w3.org/1999/xlink" x="0px" y="0px"
	 viewBox="0 0 374.2 39.6" style="enable-background:new 0 0 374.2 39.6;" xml:space="preserve" fill="white">
	<path d="M47.8,0c0.3,0,0.5,0.2,0.4,0.5l-1.5,5.8c-0.1,0.3-0.3,0.5-0.6,0.5H20c-0.9,0-1.8,0.2-2.6,0.6c-0.8,0.4-1.5,1-2.2,1.6
		c-0.6,0.7-1.2,1.4-1.7,2.2c-0.5,0.8-0.9,1.6-1.1,2.4c-0.1,0.4-0.3,0.8-0.4,1.3c-0.1,0.5-0.3,1-0.4,1.5h30.8c0.2,0,0.3,0,0.4,0.1
		c0.1,0.1,0.1,0.2,0.1,0.4l-1.5,5.8c0,0.2-0.1,0.3-0.3,0.4c-0.2,0.1-0.3,0.1-0.5,0.1H9.7c-0.1,0.5-0.2,1-0.3,1.5
		c-0.1,0.5-0.2,0.9-0.3,1.3c-0.2,0.8-0.2,1.6-0.2,2.4c0,0.8,0.2,1.6,0.5,2.2c0.3,0.6,0.8,1.2,1.4,1.6c0.6,0.4,1.3,0.6,2.2,0.6h26
		c0.3,0,0.5,0.2,0.4,0.5l-1.5,5.8c-0.1,0.3-0.3,0.5-0.6,0.5H10.4c-1.9,0-3.6-0.4-5-1.1c-1.4-0.7-2.6-1.7-3.5-2.9
		C1,34.4,0.5,33,0.2,31.4c-0.3-1.6-0.2-3.4,0.1-5.2c0.2-0.8,0.4-1.8,0.7-2.9c0.3-1.1,0.6-2.3,0.9-3.5c0.3-1.2,0.6-2.4,1-3.5
		c0.3-1.1,0.6-2.1,0.9-2.9c0.6-1.8,1.5-3.5,2.6-5.1c1.1-1.6,2.5-3,4-4.2c1.5-1.2,3.2-2.2,5-2.9C17.2,0.4,19.1,0,21,0H47.8z"/>
	<path d="M109.4,0c0.3,0,0.4,0.1,0.3,0.4L99.3,39.2c-0.1,0.3-0.2,0.4-0.5,0.4H91c-0.3,0-0.5-0.2-0.4-0.5l7-26.2
		c-0.3,0-0.5,0.1-0.8,0.2c-0.3,0.1-0.6,0.4-0.9,0.8L79.8,35.3c-0.6,0.9-1.2,1.5-1.6,2c-0.4,0.5-0.9,0.9-1.6,1.2
		c-0.5,0.3-1.3,0.4-2.4,0.4c-1,0-1.7-0.1-2.1-0.5c-0.4-0.3-0.7-0.7-0.9-1.2c-0.2-0.4-0.4-1.1-0.6-2l-4.8-21.5
		c-0.1-0.4-0.2-0.6-0.5-0.8c-0.2-0.1-0.4-0.2-0.6-0.2l-7,26.2c-0.1,0.3-0.3,0.5-0.6,0.5h-7.9c-0.3,0-0.4-0.1-0.3-0.4L59.4,0.4
		C59.5,0.1,59.7,0,59.9,0h8.3c1.5,0,2.6,0.3,3.3,0.9c0.7,0.6,1.3,1.5,1.6,2.8l4.3,21.5c0.1,0.2,0.2,0.3,0.4,0.3
		c0.2,0,0.4-0.1,0.6-0.3L94.3,3.7c0.8-1.1,1.8-2,3-2.7c1.2-0.7,2.4-1,3.8-1H109.4z"/>
	<path d="M163.6,0c0.3,0,0.5,0.2,0.4,0.5l-1.5,5.8c-0.1,0.3-0.3,0.5-0.6,0.5h-29.1c-0.9,0-1.8,0.2-2.6,0.6c-0.8,0.4-1.5,0.9-2.2,1.6
		c-0.7,0.6-1.2,1.4-1.7,2.2c-0.5,0.8-0.9,1.6-1.1,2.4c-0.3,0.8-0.5,1.7-0.9,2.8c-0.3,1.1-0.7,2.2-1,3.4c-0.3,1.2-0.6,2.3-0.9,3.4
		c-0.3,1.1-0.5,2-0.6,2.7c-0.2,0.8-0.2,1.6-0.2,2.4c0.1,0.8,0.2,1.5,0.5,2.2c0.3,0.7,0.7,1.2,1.3,1.6c0.6,0.4,1.3,0.6,2.2,0.6h20.9
		l2.6-9.6h-18.6c-0.3,0-0.4-0.2-0.3-0.5l1.6-5.8c0.1-0.3,0.3-0.5,0.6-0.5h26.8c0.3,0,0.5,0.2,0.4,0.5l-6,22.2
		c-0.1,0.3-0.3,0.5-0.6,0.5h-29.9c-1.9,0-3.6-0.4-5-1.1c-1.4-0.7-2.6-1.7-3.5-2.9c-0.9-1.2-1.5-2.6-1.7-4.2
		c-0.3-1.6-0.2-3.3,0.1-5.1c0.2-0.8,0.4-1.8,0.7-2.9c0.3-1.1,0.6-2.3,0.9-3.5c0.3-1.2,0.6-2.4,1-3.5c0.3-1.1,0.6-2.1,0.9-2.9
		c0.6-1.8,1.5-3.5,2.6-5.2c1.2-1.6,2.5-3.1,4-4.3c1.5-1.2,3.2-2.2,5-2.9c1.8-0.7,3.7-1.1,5.6-1.1H163.6z"/>
	<path d="M205.3,0c1.4,0,2.7,0.2,3.8,0.7c1.1,0.5,2.1,1.1,2.8,2c0.8,0.8,1.3,1.9,1.6,3.1c0.3,1.2,0.3,2.5,0.1,3.9
		c-0.1,0.5-0.2,1-0.4,1.7c-0.2,0.7-0.3,1.3-0.5,2c-0.2,0.7-0.4,1.3-0.6,2c-0.2,0.7-0.4,1.2-0.5,1.7c-0.5,1.4-1.2,2.7-2.1,3.8
		c-0.9,1.2-2,2.2-3.1,3.1c-1.2,0.9-2.4,1.5-3.8,2c-1.4,0.5-2.7,0.7-4.1,0.7l7.3,12.1c0.1,0.2,0.1,0.3-0.1,0.5
		c-0.1,0.2-0.3,0.3-0.6,0.3h-7.7c-0.8,0-1.3-0.3-1.6-0.9l-7.1-12h-11.8l-3.3,12.4c-0.1,0.3-0.3,0.5-0.6,0.5h-7.7
		c-0.3,0-0.5-0.2-0.4-0.5l10.3-38.6c0.1-0.3,0.3-0.5,0.6-0.5H205.3z M198.7,19.8c1.1,0,2-0.4,2.8-1.2c0.8-0.8,1.4-1.8,1.8-2.8
		c0.1-0.3,0.2-0.7,0.4-1.1c0.1-0.5,0.3-0.9,0.4-1.4c0.1-0.5,0.2-1,0.4-1.4c0.1-0.5,0.2-0.8,0.2-1.2c0.1-1,0-1.9-0.3-2.7
		c-0.3-0.8-1.1-1.2-2.2-1.2h-19.9l-3.5,13.1H198.7z"/>
	<path d="M247.7,0c1.5,0,2.7,0.2,3.6,0.5c0.9,0.3,1.6,0.7,2.2,1.2c0.5,0.5,0.9,1.1,1.2,1.7c0.3,0.6,0.4,1.2,0.5,1.8l6.1,33.8
		c0,0.2,0,0.3-0.2,0.5c-0.1,0.1-0.3,0.2-0.5,0.2h-7.3c-0.7,0-1.1-0.3-1.3-1l-1.5-8.1h-22.1l-5.9,8.2c-0.5,0.6-1.1,1-1.8,1h-7.2
		c-0.2,0-0.3-0.1-0.4-0.2c-0.1-0.1,0-0.3,0.1-0.5l24.2-33.8c0.4-0.6,0.9-1.1,1.5-1.7c0.6-0.6,1.3-1.1,2.1-1.6s1.8-0.9,2.8-1.2
		C245,0.2,246.3,0,247.7,0z M249.4,23.6l-2.6-14.1c-0.1-0.6-0.2-1-0.3-1.1c-0.2-0.3-0.5-0.4-1-0.4c-0.4,0-0.8,0.1-1.1,0.4
		c-0.3,0.2-0.6,0.6-1,1.1l-10.1,14.1H249.4z"/>
	<path d="M322.4,0c0.3,0,0.5,0.2,0.4,0.5l-10.3,38.6c-0.1,0.3-0.3,0.5-0.6,0.5h-7.9c-1.3,0-2.3-0.2-3.1-0.7
		c-0.7-0.5-1.3-1.1-1.8-1.9l-12.7-23.4c-0.3-0.5-0.7-0.8-1.1-0.8l-7,26.2c-0.1,0.3-0.3,0.5-0.6,0.5h-7.7c-0.3,0-0.5-0.2-0.4-0.5
		l10.3-38.6c0.1-0.3,0.3-0.5,0.6-0.5h8.3c1.2,0,2.2,0.3,2.8,0.8c0.6,0.5,1.1,1.1,1.5,1.8L305.6,27c0.2,0.5,0.6,0.7,1.2,0.7L314,0.5
		c0.1-0.3,0.3-0.5,0.6-0.5H322.4z"/>
	<path d="M363.8,0c1.9,0,3.6,0.4,5,1.1c1.4,0.7,2.6,1.7,3.5,2.9c0.9,1.2,1.5,2.6,1.7,4.3c0.3,1.6,0.2,3.4-0.1,5.2
		c-0.2,0.8-0.4,1.8-0.7,2.9c-0.3,1.2-0.6,2.3-0.9,3.5c-0.3,1.2-0.6,2.4-1,3.5c-0.3,1.1-0.6,2.1-0.9,2.9c-0.6,1.8-1.5,3.5-2.6,5.1
		c-1.2,1.6-2.5,3-4,4.2c-1.5,1.2-3.2,2.2-5,2.9c-1.8,0.7-3.7,1.1-5.6,1.1h-28.9c-0.3,0-0.4-0.2-0.3-0.5l10.3-38.6
		c0.1-0.3,0.3-0.5,0.6-0.5H363.8z M354.2,32.8c0.9,0,1.8-0.2,2.5-0.6c0.8-0.4,1.5-1,2.2-1.6c0.7-0.7,1.2-1.4,1.7-2.2
		c0.5-0.8,0.9-1.6,1.2-2.4c0.2-0.8,0.5-1.7,0.8-2.7c0.3-1.1,0.6-2.2,0.9-3.4c0.3-1.2,0.6-2.3,0.9-3.4c0.3-1.1,0.5-2,0.7-2.8
		c0.2-0.8,0.2-1.6,0.2-2.4c0-0.8-0.2-1.6-0.5-2.2c-0.3-0.6-0.8-1.2-1.4-1.6c-0.6-0.4-1.3-0.6-2.2-0.6h-19.8l-7,26H354.2z"/>
</svg>
