<svg viewBox="0 0 136 75" fill="none" xmlns="http://www.w3.org/2000/svg">
<path d="M38.4363 4.18485C38.5234 6.49525 38.6324 9.37233 38.6761 10.5711C38.7416 11.7699 38.8287 13.6226 38.8721 14.6906C38.9376 15.8458 39.0684 16.6958 39.221 16.783C39.3734 16.8702 40.8774 17.0228 42.5776 17.1099C44.2558 17.1753 46.0868 17.2843 46.6316 17.3279C47.1766 17.3715 48.8984 17.4805 50.4461 17.5459C52.0153 17.6113 55.1974 17.7638 57.5298 17.8728C63.0006 18.1344 73.6371 18.1344 79.2169 17.8728C81.6145 17.7638 84.7967 17.6113 86.3006 17.5459C87.8046 17.4805 89.5264 17.3715 90.1148 17.3279C90.7251 17.2843 92.5343 17.1753 94.1472 17.1099C95.7601 17.0228 97.2422 16.9138 97.4385 16.8702C97.7217 16.783 97.809 16.2599 97.9398 13.7751C98.0922 10.4403 98.3756 2.61553 98.3975 1.08981V0.108981L68.3406 0.0435924L38.2837 0L38.4363 4.18485Z" fill="#2C3E48"/>
<path d="M25.9074 0.303649C25.8638 0.347242 22.9214 0.434426 19.3904 0.52161C12.5682 0.652387 7.53332 0.957532 5.81145 1.30627C2.56382 1.98195 1.0381 4.09618 0.994504 8.06308C0.950912 10.9837 1.14708 13.7301 1.38683 13.9262C1.51761 14.0352 2.65101 14.1878 3.91519 14.2532C5.17935 14.3404 8.95008 14.6455 12.3067 14.9289C15.6633 15.2122 19.1942 15.4955 20.1533 15.5609C21.1123 15.6481 22.529 15.7353 23.3137 15.8007C24.7958 15.9097 32.9911 16.4982 35.585 16.6725L37.0888 16.7815L36.958 15.2994C36.8927 14.4929 36.7837 12.3133 36.7182 10.4606C36.6311 8.60798 36.544 6.34118 36.5003 5.44753C36.435 4.55389 36.3914 3.00636 36.3914 2.00375V0.216465H31.204C28.3487 0.216465 25.9511 0.260057 25.9074 0.303649Z" fill="#2C3E48"/>
<path d="M100.474 0.565185C100.474 0.783146 100.321 4.00898 100.147 7.73612C99.9727 11.4415 99.8201 15.016 99.8201 15.6263V16.7815L101.302 16.6725C102.109 16.6071 105.509 16.3674 108.866 16.1276C116.777 15.5609 116.69 15.5609 124.341 14.9288C127.937 14.6237 131.86 14.3185 133.059 14.2532C134.258 14.166 135.326 14.0352 135.435 13.9262C135.544 13.839 135.653 11.8992 135.653 9.65417C135.675 5.77446 135.653 5.49111 135.152 4.4013C133.953 1.74217 131.969 1.06649 124.341 0.761349C122.554 0.674165 120.439 0.586981 119.655 0.543388C118.87 0.499796 114.249 0.390815 109.367 0.30363C100.714 0.151058 100.474 0.151058 100.474 0.565185Z" fill="#2C3E48"/>
<path d="M1.64928 17.0012C2.69549 24.6952 5.70336 27.8992 14.6615 30.8418C18.3669 32.0405 30.6163 34.7216 37.6565 35.855L38.5936 36.0074L38.4628 34.6126C38.0052 29.4468 37.482 23.0823 37.3513 21.186C37.2641 19.9655 37.1333 18.8975 37.0244 18.8539C36.8718 18.7449 33.7549 18.4834 29.1996 18.2C26.6494 18.0257 13.7679 17.0448 12.4165 16.9141C11.8717 16.8487 10.4985 16.7397 9.3651 16.6525C8.2317 16.5871 5.9867 16.3909 4.3956 16.2602L1.4967 15.9986L1.64928 17.0012Z" fill="#2C3E48"/>
<path d="M132.274 16.2399C130.748 16.3925 128.59 16.5886 127.479 16.654C126.345 16.7412 124.95 16.8502 124.34 16.8938C122.88 17.0246 112.548 17.831 110.499 17.9836C109.606 18.049 108.189 18.158 107.339 18.2016C103.655 18.4631 99.7319 18.7682 99.6885 18.8119C99.5793 18.9426 98.2498 35.7909 98.3588 35.8783C98.555 36.0962 107.6 34.3525 115.185 32.6741C124.035 30.6907 128.634 28.7509 131.445 25.7867C133.451 23.6941 134.279 21.8414 135.02 17.8964C135.412 15.7822 135.39 15.913 135.194 15.9347C135.085 15.9566 133.778 16.0873 132.274 16.2399Z" fill="#2C3E48"/>
<path d="M39.178 18.8539C39.1343 18.8975 39.2651 20.7938 39.4614 23.0389C39.6575 25.2839 39.8754 27.9647 39.9627 28.9891C40.1588 31.7136 40.573 36.2908 40.6164 36.3344C40.8127 36.5742 52.212 38.296 58.1841 39.0155C66.6628 40.0179 69.8888 40.0179 78.5636 39.0155C84.2306 38.3615 94.8236 36.7486 95.7825 36.3999C96.1312 36.2691 96.2402 36.0076 96.2838 35.2881C96.3057 34.7652 96.4365 33.3484 96.5454 32.1497C97.1338 25.9594 97.6352 19.0937 97.4825 18.9629C97.3954 18.8975 94.7144 18.9847 91.5323 19.2027C88.3499 19.3988 83.8383 19.6604 81.5059 19.7694C76.2096 19.9873 60.6472 20.0091 55.6777 19.7694C50.6209 19.5514 40.7909 18.9847 39.9409 18.8757C39.5703 18.8103 39.2216 18.8103 39.178 18.8539Z" fill="#2C3E48"/>
<path d="M4.46728 56.0822C3.99504 56.3398 3.52278 56.8335 3.22227 57.4345C2.72855 58.379 2.72855 58.4434 2.79295 65.5701C2.85734 72.7182 2.85734 72.7612 3.35106 73.4695C4.3385 74.8434 3.93064 74.8004 16.5955 74.8004H28.0797V69.2193V63.6382L19.7724 63.6811L11.4437 63.7455L11.3793 65.291L11.3149 66.858H17.8834H24.4306V69.2193V71.5806H15.4149H6.39922V65.2481V58.9157H17.2395H28.0797V57.3057V55.6958H16.6384C5.99136 55.6958 5.15419 55.7173 4.46728 56.0822Z" fill="#2C3E48"/>
<path d="M33.7031 64.3681L33.7676 73.0403L34.3041 73.6199C35.4419 74.822 35.0985 74.8005 47.0763 74.8005H58.1313V73.1906V71.5807H47.613H37.0946V69.2194V66.8582H47.2909H57.4872V65.2482V63.6383H47.2909H37.0946V61.277V58.9158H47.613H58.1313V57.3059V55.6959H45.8958H33.6388L33.7031 64.3681Z" fill="#2C3E48"/>
<path d="M63.286 64.0032C63.286 73.298 63.286 73.3194 64.7672 74.3069L65.497 74.8006H76.6162H87.7572V73.1906V71.5807H77.2388H66.7205V69.2194V66.8582H76.9169H87.1131V65.2483V63.6383H76.9169H66.7205V61.2771V58.9158H77.2388H87.7572V57.3059V55.696H75.5215H63.286V64.0032Z" fill="#2C3E48"/>
<path d="M92.9496 64.1106C93.0139 72.0959 93.0354 72.5896 93.4434 73.255C93.6795 73.6414 94.1732 74.1566 94.5381 74.3927C95.1819 74.7791 95.6971 74.8006 104.906 74.8006H114.587V73.1906V71.5807H105.572H96.5558V63.6383V55.696H94.7097H92.8851L92.9496 64.1106Z" fill="#2C3E48"/>
<path d="M114.114 61.5561L119.953 67.3949V71.1084V74.8006H121.778H123.602V71.1084V67.3949L129.441 61.5561L135.301 55.696H133.047H130.793L126.285 60.2038L121.778 64.7116L117.27 60.2038L112.762 55.696H110.508H108.254L114.114 61.5561Z" fill="#2C3E48"/>
</svg>
