<svg version="1.1" id="Layer_1" xmlns="http://www.w3.org/2000/svg" xmlns:xlink="http://www.w3.org/1999/xlink" x="0px" y="0px"
	 viewBox="0 0 374.2 34.8" style="enable-background:new 0 0 374.2 34.8;" xml:space="preserve" fill="white">
	<path d="M17.4,8.5c0,0,0.1,0,0.1,0c0,0,0.1,0,0.1,0l28.7,0c0.4,0,0.5-0.2,0.5-0.5V1.9c0-0.4-0.2-0.5-0.5-0.5l-36.5,0c0,0,0,0,0,0
		c-0.1,0-0.2,0-0.2,0C4.3,1.4,0,5.6,0,10.9c0,0,0,14.4,0,14.4c0,5.3,4.3,9.5,9.5,9.5c0.1,0,0.2,0,0.2,0c0,0,0,0,0,0l36.5,0
		c0.4,0,0.5-0.2,0.5-0.5v-6.1c0-0.3-0.2-0.5-0.5-0.5l-28.7,0c0,0-0.1,0-0.1,0c0,0-0.1,0-0.1,0c-2.9,0-5.3-2.4-5.3-5.3
		c0-0.2,0-0.5,0-0.5v-0.1v-0.3v-7.1v-0.1c0,0,0-0.3,0-0.5C12.1,10.8,14.4,8.5,17.4,8.5z"/>
	<path d="M155.8,8.6L155.8,8.6c-0.2-4-3.3-7.2-7.2-7.5h-28.4v0h-2.5v0c0,0,0,0,0,0c-3.9,0-7.5,1.6-10,4.2l-4.2,3.8l-4.2-3.8
		c-2.5-2.6-6.1-4.2-10-4.2c0,0,0,0,0,0v0h-2.5v0H58.5c-3.9,0.3-7,3.5-7.2,7.5h0v18h0c0,0.1,0,0.2,0,0.3c0,4.1,3.2,7.5,7.3,7.8h1.2
		c0,0,0,0,0,0h26.5v0h2.5v0h0.6v0c3.7-0.1,7-1.7,9.5-4.2l4.7-4.7l4.7,4.7c2.4,2.5,5.8,4,9.5,4.2v0h0.6v0h2.5v0h26.5c0,0,0,0,0,0h1.2
		c4.1-0.3,7.3-3.7,7.3-7.8c0-0.1,0-0.2,0-0.3h0V8.6z M90,24c-2.5,2-3.8,3-7.6,3.2l-15.4,0c0,0,0,0,0,0c-2.4-0.2-4.2-2.1-4.2-4.5
		c0-0.1,0-0.4,0-0.4v-8.9c0,0,0-0.2,0-0.4c0-2.4,1.9-4.4,4.2-4.5c0,0,16,0,16,0c3.1,0,4,1.3,6.2,3.2l6.8,6.3L90,24z M144.3,22.4
		c0,0,0,0.3,0,0.4c0,2.4-1.9,4.4-4.2,4.5c0,0,0,0,0,0l-15.4,0c-3.8-0.2-5.1-1.3-7.6-3.2l-6-5.8l6.8-6.3c2.2-1.9,3.1-3.2,6.2-3.2
		c0,0,16,0,16,0c2.4,0.2,4.2,2.1,4.2,4.5c0,0.1,0,0.4,0,0.4L144.3,22.4z"/>
	<path d="M180.2,27.2h-1.7v0c0,0,0,0,0,0c-1.6,0-2.9-1.3-3-2.9h0v-6.2V1.2h-12.9v24.7c0,4.9,4,8.9,8.9,8.9h38.2v-7.6H180.2z"/>
	<path d="M314.2,33.6l12.3,0.1l-22.3-31l0,0c-1.2-1.6-3-2.6-5.1-2.7v0h-10.2v0c-0.6,0-1.2,0.1-1.7,0.3c0,0,0,0,0,0
		c-0.4,0.1-0.7,0.3-1.1,0.5c-0.1,0-0.1,0.1-0.2,0.1c-0.1,0.1-0.2,0.1-0.3,0.2c-0.2,0.1-0.3,0.2-0.5,0.3c0,0,0,0,0,0
		c-0.7,0.6-1.3,1.2-1.8,2L269,23.8c-1.5,1.7-3.8,2.8-6.3,2.8h-10.9v0c-1.3,0-2.4-0.6-3.1-1.6l-0.6-0.9c0,0,0,0,0,0
		c-0.1-0.2-0.2-0.4-0.2-0.6c0-0.6,0.5-1,1-1c0.1,0,0.2,0,0.3,0c0,0,0,0,0,0h5.3v0c4.2,0,7.7-3.5,7.7-7.7c0,0,0-0.1,0-0.1h0V8.2h0
		c-0.4-3.9-3.7-7-7.7-7h-41c-1.2,0-2.3,1-2.3,2.3c0,0,0,0.1,0,0.1v31.2h12.2v-25h0c0-0.9,0.7-1.6,1.6-1.6c0,0,0,0,0,0c0,0,0,0,0,0
		h21.8c0,0,0,0,0,0c1.8,0,3.2,1.4,3.2,3.2c0,1.8-1.4,3.2-3.2,3.2v0h-11.6H235h-2.8c-0.8,0-1.4,0.6-1.4,1.4c0,0.4,0.1,0.7,0.4,0.9
		l0,0l9.1,13.9c1.2,1.9,3.3,3.1,5.7,3.1h17.5h2.2h5.2c2,0,3.8-0.9,4.9-2.4l0,0l0.1-0.2c0.1-0.1,0.1-0.2,0.2-0.3l5.8-8.4h24.7
		L314.2,33.6z M286.5,16l5-7.1l0,0l0.7-1h3.5l5.9,8.1H286.5z"/>
	<path d="M349.8,20.8L374.2,0h-15.4l-14.2,12.1c-0.4,0.3-0.9,0.5-1.5,0.5c-0.6,0-1.1-0.2-1.5-0.5c0,0,0,0,0,0L327.5,0h-15.4
		l24.3,20.7c0,0,0,0,0,0c0.8,0.7,1.3,1.6,1.3,2.8c0,0,0,0,0,0.1c0,0,0,0,0,0V34h10.8V23.1C348.6,22.2,349.1,21.4,349.8,20.8z"/>
</svg>
