<svg version="1.1" id="Layer_1" xmlns="http://www.w3.org/2000/svg" xmlns:xlink="http://www.w3.org/1999/xlink" x="0px" y="0px"
	 viewBox="0 0 327.2 34.8" style="enable-background:new 0 0 327.2 34.8;" xml:space="preserve" fill="white">
		<path d="M187.1,0.4c3.8,0,7.7,0,11.5,0c3.3,0.1,6.5,0,9.8,0.1c1.9,0.1,3.8,0,5.7,0.2c2,0.1,3.9,0.4,5.8,1c1.3,0.4,2.4,1.1,3.4,2
			c1.3,1.2,1.9,2.7,2.2,4.4c0.3,1.8,0.3,3.6,0.3,5.3c0,1.2-0.1,2.5-0.4,3.7c-0.6,2.1-1.9,3.6-3.9,4.6c-1.6,0.8-3.4,1.1-5.1,1.2
			c-1.6,0.1-3.3,0-4.9,0.2c-0.2,0-0.4-0.1-0.5,0.2c-0.1,0.2,0.1,0.3,0.2,0.5c0.7,0.9,1.4,1.8,2.3,2.7c0.7,0.7,1.5,1,2.5,1
			c2,0,4,0,6,0c0.4,0,0.8,0,1.2,0c0.3,0,0.6-0.1,0.7-0.4c0.5-0.7,0.9-1.5,1.4-2.2c3.6-5.8,7.2-11.5,10.8-17.3
			c1.1-1.8,2.2-3.5,3.3-5.3c0.6-1,1.3-1.4,2.5-1.4c4.2,0.1,8.5,0,12.7,0c0.4,0,0.8,0,1.2,0.1c0.6,0,1,0.3,1.4,0.8
			c0.4,0.6,0.8,1.2,1.2,1.8c3.1,4.7,6.1,9.3,9.2,14c3.4,5.2,6.8,10.4,10.2,15.6c0.1,0.2,0.2,0.4,0.3,0.6c0.2,0.4,0.1,0.7-0.2,1
			c-0.2,0.2-0.5,0.2-0.8,0.3c-0.5,0-1.1,0.1-1.6,0.1c-2.8,0-5.5,0-8.3,0c-0.4,0-0.9,0-1.3-0.1c-0.5,0-0.9-0.2-1.2-0.7
			c-0.7-1.1-1.4-2.1-2.1-3.2c-1.6-2.4-3.1-4.8-4.7-7.1c-0.4-0.6-0.8-0.9-1.5-0.9c-0.2,0-0.5,0-0.7,0c-4.7,0-9.3,0-14,0
			c-0.1,0-0.3,0-0.4,0c-0.6,0-1.1,0.2-1.4,0.8c-1,1.6-1.9,3.1-2.9,4.6c-1.1,1.8-2.2,3.6-3.4,5.4c-0.1,0.2-0.3,0.4-0.4,0.6
			c-0.3,0.3-0.6,0.5-1.1,0.5c-0.1,0-0.3,0-0.4,0c-7.3,0-14.5,0-21.8,0c-0.8,0-1.5,0-2.3-0.2c-1.5-0.3-2.6-1.1-3.6-2.2
			c-0.6-0.8-1.2-1.5-1.7-2.3c-2.8-4.1-5.4-8.2-8-12.5c-0.2-0.4-0.4-0.8-0.7-1.2c-0.1-0.1-0.1-0.3-0.2-0.4c-0.3-0.9,0.2-1.7,1.2-1.8
			c0.6-0.1,1.2-0.1,1.9-0.1c4.4,0,8.8,0,13.2,0c0.4,0,0.7,0,1.1,0c0.7-0.1,1.2-0.5,1.3-1.2c0-1.1,0.1-2.1-0.1-3.2
			c-0.1-1-0.6-1.4-1.6-1.4c-1.3,0-2.6,0-4,0c-6-0.1-12,0-18-0.1c-0.3,0-0.6,0-0.9,0c-0.6,0-0.9,0.3-0.9,1c0,0.1,0,0.2,0,0.3
			c0,0.3,0,0.6,0,1c0.1,3.3,0.1,6.6,0.2,9.9c0.1,2.2,0,4.5,0.1,6.7c0.1,1.7,0.1,3.5,0.1,5.2c0,1.2-0.3,1.6-1.6,1.6
			c-3.2,0-6.4,0-9.6,0c-0.2,0-0.3,0-0.5,0c-0.8-0.1-1.1-0.5-1.2-1.3c0,0,0-0.1,0-0.1c0-2.3-0.1-4.5-0.1-6.8c0-3.2-0.1-6.5-0.1-9.7
			c0-2.3,0-4.7-0.1-7c-0.1-2.3-0.1-4.7-0.1-7c0-1.1,0.3-1.4,1.4-1.5C179.1,0.3,183.1,0.3,187.1,0.4C187.1,0.3,187.1,0.3,187.1,0.4z
			 M249.6,16.3C249.6,16.3,249.6,16.3,249.6,16.3c0.9,0,1.9,0,2.8,0c0.2,0,0.5,0.1,0.6-0.2c0.1-0.2-0.1-0.4-0.2-0.6
			c-0.7-1.1-1.5-2.2-2.2-3.4c-0.3-0.4-0.5-0.8-0.8-1.2c-0.3-0.4-0.4-0.4-0.7,0c-0.3,0.5-0.7,1.1-1,1.6c-0.6,1-1.3,2-1.9,3.1
			c-0.3,0.5-0.2,0.6,0.4,0.6c0.1,0,0.2,0,0.3,0C247.8,16.3,248.7,16.3,249.6,16.3z"/>
		<path d="M102,0.1c8.9,0,17.9,0,26.8,0c0.4,0,0.7,0,1.1,0.1c0.6,0.1,1.1,0.3,1.5,0.7c3.3,2.9,6.5,5.9,9.8,8.8
			c0.7,0.6,1.3,1.2,2,1.8c1,0.8,1.4,0.8,2.3,0c2.6-2.5,5.2-4.9,7.9-7.4c0.9-0.9,1.9-1.7,2.8-2.6c0.7-0.7,1.5-1,2.4-1
			c2.4,0,4.8,0,7.1,0c0.1,0,0.3,0,0.4,0c0.7,0.1,1,0.4,1.1,1.1c0.1,1.1,0.1,2.1,0,3.2c0,0.6-0.3,1.1-0.7,1.5c-1.4,1.3-2.8,2.6-4.2,4
			c-1.4,1.3-2.9,2.7-4.3,4c-2.1,2-4.3,4-6.4,6c-0.5,0.5-0.8,1-0.8,1.7c0,1.8,0.1,3.6,0.1,5.5c0,1.4,0,2.8,0,4.2
			c0,0.9-0.4,1.2-1.2,1.4c-0.2,0-0.5,0-0.7,0c-1.1,0-2.1,0-3.2,0c-1.9,0-3.9,0-5.8,0.1c-0.3,0-0.6,0-0.9-0.1
			c-0.5-0.1-0.8-0.4-0.9-0.9c0-0.2,0-0.3,0-0.5c0-0.4,0-0.8,0-1.2c0-2.8-0.1-5.6-0.1-8.4c0-0.8-0.3-1.5-0.9-2.1
			c-1.2-1.1-2.4-2.2-3.6-3.2c-1.6-1.4-3.1-2.8-4.7-4.2c-1.5-1.3-3-2.6-4.4-4c-0.5-0.5-1.1-0.7-1.8-0.7c-1.8,0-3.7,0-5.5,0
			c-3.2-0.1-6.4-0.1-9.7-0.1c-0.3,0-0.5,0-0.8,0c-0.5,0.1-0.8,0.3-0.8,0.9c0,0.4,0,0.9,0,1.3c0,0.6,0.1,1.1,0.1,1.7
			c0,2.7,0.1,5.4,0.1,8c0.1,1.6,0,3.2,0.1,4.8c0.1,1.7,0,3.4,0.1,5c0,1.1,0,2.3,0.1,3.4c0,1-0.4,1.4-1.4,1.5c-0.8,0-1.6,0-2.5,0
			c-1.2-0.1-2.4,0-3.6-0.1c-1.3,0-2.6,0-3.9,0c-0.4,0-0.8,0-1.2-0.1c-0.7-0.1-1.1-0.5-1.1-1.3c0-1,0-2-0.1-2.9
			c-0.1-2.7-0.1-5.4-0.2-8.2c-0.1-1.9,0-3.9-0.1-5.8c-0.1-1.7-0.1-3.4-0.1-5c0-0.7,0-1.4-0.1-2.1c0-0.6-0.3-0.8-0.9-0.9
			c-0.8,0-1.5-0.1-2.3-0.1c-4.7,0-9.3,0-14,0c-0.3,0-0.5,0-0.8-0.1c-0.6-0.1-0.9-0.4-0.9-1c0-0.4-0.1-0.9-0.1-1.3c0-1.3,0-2.5,0-3.8
			c0-0.2,0-0.4,0-0.5c0.1-0.6,0.4-0.9,1-1C74.5,0,74.9,0,75.3,0C84.2,0.1,93.1,0.1,102,0.1z"/>
		<path d="M27.9,34.2c-4.6,0-9.2,0-13.8,0c-1.9,0-3.9,0-5.8-0.1c-0.9,0-1.9,0-2.8-0.2c-2.5-0.6-4-2.1-4.8-4.5
			c-0.3-1.1-0.4-2.2-0.5-3.3C-0.1,20.5,0,15,0.1,9.5c0-1.2,0.1-2.4,0.5-3.6c0.7-2.1,2-3.7,4-4.6c1.6-0.8,3.3-1,5-1
			c1.2-0.1,2.4,0,3.5,0C22,0.1,30.9,0.1,39.8,0.1c0.9,0,1.8,0,2.7-0.1c0.1,0,0.3,0,0.4,0C44,0,44.8,0.4,45.4,1.3
			c1,1.7,2.2,3.3,3.3,4.9c0.2,0.3,0.4,0.5,0.5,0.8c0.2,0.5,0,0.8-0.5,1c-0.3,0.1-0.7,0.1-1.1,0.1c-3.7,0-7.5,0-11.2,0
			C29.7,8.3,23,8.3,16.3,8.3c-0.3,0-0.5,0-0.7,0.1c-0.5,0.1-0.7,0.3-0.8,0.9c0,0.5-0.1,1.1-0.1,1.6c-0.1,2.3-0.2,4.6-0.1,7
			c0,1.1,0,2.2,0.1,3.3c0.1,1.4,0.2,2.7,0.3,4.1c0.1,0.6,0.3,0.8,0.9,0.8c0.2,0,0.5,0,0.7,0c10.1,0,20.3,0,30.4,0
			c0.4,0,0.7,0,1.1,0.1c0.7,0.1,1,0.5,1.1,1.2c0,0.7,0.1,1.4,0.1,2.1c0,1.1,0,2.3,0.1,3.4c0,0.2,0,0.5-0.1,0.7
			c-0.1,0.4-0.3,0.6-0.7,0.7c-0.4,0.1-0.7,0.1-1.1,0.1C40.9,34.2,34.4,34.2,27.9,34.2C27.9,34.2,27.9,34.2,27.9,34.2z"/>
		<path d="M277.2,0.7c1.6,0,3.2,0,4.8,0c0.6,0,1.1,0.1,1.7,0.1c0.7,0.1,1.2,0.4,1.7,0.8c1.2,1.1,2.5,2.2,3.7,3.4
			c2.6,2.4,5.3,4.8,7.9,7.2c0.4,0.4,0.9,0.8,1.3,1.2c0.1,0.1,0.3,0.2,0.5,0.3c0.3,0.2,0.6,0.2,0.9,0c0.2-0.1,0.4-0.2,0.5-0.4
			c1.5-1.4,3.1-2.9,4.6-4.3c2.5-2.3,5-4.7,7.5-7c0.1,0,0.1-0.1,0.2-0.1c0.6-0.7,1.5-0.9,2.4-0.9c0.9,0,1.8,0.1,2.7,0.1
			c2.5,0,5,0,7.6,0c0.4,0,0.8,0,1.2,0.1c0.2,0,0.4,0.1,0.5,0.2c0.3,0.2,0.3,0.4,0.2,0.7c-0.1,0.3-0.3,0.4-0.5,0.6
			c-2.9,2.7-5.8,5.5-8.7,8.2c-1.2,1.1-2.4,2.2-3.5,3.3c-2.5,2.3-4.9,4.6-7.4,6.9c-1,0.9-1.5,1.9-1.4,3.3c0.1,1.6,0,3.1,0.1,4.7
			c0,1.3,0.1,2.7,0.1,4c0,1-0.4,1.4-1.4,1.5c-1.5,0.1-3,0.1-4.5,0c-1.5,0-3.1,0-4.6,0c-0.2,0-0.4,0-0.6,0c-0.6,0-1-0.4-1.1-0.9
			c0-0.1,0-0.3,0-0.4c0-2.7-0.1-5.4-0.1-8.1c0-0.5,0-1.1-0.1-1.6c-0.1-0.7-0.3-1.2-0.8-1.7c-0.6-0.5-1.1-1.1-1.7-1.6
			c-2.3-2.1-4.6-4.1-6.8-6.2c-3.2-2.9-6.5-5.9-9.7-8.8c-1-0.9-2-1.8-3-2.8c-0.2-0.2-0.4-0.4-0.5-0.6c-0.2-0.5-0.1-0.9,0.4-1
			c0.3-0.1,0.6-0.1,0.8-0.1C273.7,0.6,275.4,0.6,277.2,0.7C277.2,0.6,277.2,0.6,277.2,0.7z"/>
		<path d="M61.9,0c1.6,0,3.3,0,4.9,0c0.4,0,0.7,0,1.1,0.1c0.6,0.1,0.9,0.4,1,1c0,0.2,0,0.4,0,0.6c0.1,4.5,0.1,8.9,0.1,13.4
			c0,3.2,0,6.5,0.1,9.7c0.1,2.7,0,5.3,0.1,8c0,1.1-0.4,1.5-1.4,1.6c-0.5,0-1-0.1-1.6-0.1c-2.8,0-5.6,0-8.4,0c-0.4,0-0.8,0-1.2-0.1
			c-0.7-0.1-1-0.4-1.1-1.1c0-0.3-0.1-0.6-0.1-0.9c0-1.3,0-2.5,0-3.8c0-4.7-0.1-9.3-0.1-14c0-3.8,0-7.5-0.1-11.3c0-0.5,0-1-0.1-1.6
			c0-0.2,0-0.4,0.1-0.6c0.1-0.5,0.4-0.7,0.8-0.8C56.3,0,56.6,0,57,0C58.6,0,60.3,0,61.9,0C61.9,0,61.9,0,61.9,0z"/>
</svg>
