<svg version="1.1" id="Layer_1" xmlns="http://www.w3.org/2000/svg" xmlns:xlink="http://www.w3.org/1999/xlink" x="0px" y="0px"
	 viewBox="0 0 374.2 36.8" style="enable-background:new 0 0 374.2 36.8;" xml:space="preserve" fill="white">
	<path d="M73.9,23.8c-0.2,0.5-0.1,0.8-0.1,1.2c0,2.2,0,4.5,0,6.7c0,0.9,0,0.9-0.8,0.9c-3.2,0-6.4,0-9.6,0c-0.7,0-0.8,0-0.8-0.8
		c0-0.7,0-1.4,0-2c0-8.1,0-16.1,0-24.2c0-0.2,0-0.5,0-0.7c0-0.9,0-0.9,0.9-0.9c3.2,0,6.3,0,9.5,0c0.8,0,0.9,0,0.9,0.9
		c0,2.3,0,4.7,0,7c0,0.4,0,0.8,0,1.2c0.5,0.1,0.8-0.2,1.1-0.4c5-2.7,10-5.4,15-8.2c0.7-0.4,1.5-0.6,2.3-0.6c4.2,0,8.3,0,12.5,0
		c0.4,0,0.8,0,1.1,0c0,0.1,0,0.2,0.1,0.2C97.4,8.8,89,13.4,80.7,18c0,0.4,0.3,0.4,0.5,0.5c3.9,2.2,7.9,4.4,11.8,6.6
		c1.4,0.8,2.9,1.2,4.5,1.1c0.9,0,1.8,0,2.7,0c1.5,0,2.6-0.6,3.5-1.9c3.2-5,6.5-10,9.7-15c0.9-1.5,1.9-2.9,2.8-4.4
		c0.4-0.6,0.9-0.9,1.7-0.9c3.9,0,7.7,0,11.6,0c0.9,0,1.4,0.3,1.9,1.1c4.2,6.5,8.4,12.9,12.6,19.4c0.3,0.4,0.5,0.8,0.9,1.2
		c0.8,0.8,1.7,0.8,2.6,0c0.4-0.3,0.6-0.8,0.9-1.2c4.2-6.5,8.4-13,12.6-19.5c0.4-0.7,0.9-0.9,1.7-0.9c3.4,0.1,6.8,0,10.1,0
		c0.3,0,0.7-0.1,1,0.1c0,0.4-0.3,0.7-0.5,0.9c-5.3,8.2-10.7,16.5-15.9,24.7c-1.3,2-2.8,3-5.3,2.9c-3.7-0.1-7.5,0-11.2,0
		c-0.5,0-0.9,0-1.4,0c-1.3-0.1-2.3-0.7-3-1.7c-0.6-0.8-1.1-1.6-1.6-2.5c-0.3-0.5-0.7-0.7-1.3-0.7c-4.5,0-9,0-13.4,0c-2,0-4,0-6,0
		c-0.7,0-1.2,0.2-1.6,0.8c-0.4,0.8-1,1.6-1.5,2.3c-0.8,1.2-2,1.8-3.4,1.8c-5.2,0-10.4,0-15.7,0c-1.5,0-2.9-0.5-4.2-1.2
		c-4.2-2.3-8.4-4.7-12.7-7C74.7,24.2,74.3,24,73.9,23.8z M130.3,21.6c-2.3-3.5-4.4-6.8-6.7-10.2c-2.2,3.5-4.4,6.8-6.6,10.2
		C121.5,21.6,125.8,21.6,130.3,21.6z"/>
	<path d="M345.7,0.4c5.9,0,11.8,0,17.7,0c2.2,0,4.3,0.4,6.3,1.4c2.8,1.4,4.5,3.7,4.5,6.9c0,0.2,0,0.5,0,0.7c0,6.2,0,12.4,0,18.6
		c0,3.7-1.8,6.1-5,7.6c-1.3,0.6-2.7,1-4.2,1.1c-1.3,0.1-2.6,0.1-3.8,0.1c-10.3,0-20.6,0-30.9-0.1c-2,0-3.9,0-5.8-0.5
		c-1.4-0.4-2.6-0.9-3.8-1.7c-2.1-1.5-3.3-3.6-3.3-6.2c0-0.1,0-0.2,0-0.3c0-6.4,0-12.7,0-19.1c0-3.2,1.5-5.4,4.1-6.9
		c1.7-1,3.6-1.5,5.6-1.6c1.6-0.1,3.2-0.1,4.8-0.1C336.5,0.3,341.1,0.3,345.7,0.4C345.7,0.3,345.7,0.4,345.7,0.4z M345.9,8.1
		C345.9,8.1,345.9,8.1,345.9,8.1c-4,0-8,0-12,0c-0.4,0-0.7,0-1.1,0c-0.7,0.1-1.1,0.5-1.1,1.2c0,0.3,0,0.6,0,1c0,5.4,0,10.9,0,16.3
		c0,2.1,0.2,2.3,2.4,2.3c7.9,0,15.8,0,23.7,0c0.3,0,0.6,0,0.9,0c1-0.1,1.4-0.5,1.5-1.5c0-0.2,0-0.5,0-0.7c0-5.5,0-11,0-16.5
		c0-0.3,0-0.6,0-0.9c-0.1-0.8-0.5-1.1-1.2-1.2c-0.3,0-0.6,0-0.9,0C353.8,8.1,349.9,8.1,345.9,8.1z"/>
	<path d="M28.2,0C34.1,0,40,0,45.9,0c2.3,0,4.5,0.4,6.5,1.4c2.7,1.4,4.4,3.6,4.4,6.7c0,2.9,0,5.9,0,8.8c0,3.3,0,6.7,0,10
		c0,4.8-2.4,7.8-7.2,8.9c-1.2,0.3-2.4,0.4-3.6,0.4c-11.7,0-23.4,0-35.1,0c-2.3,0-4.5-0.4-6.6-1.5C1.6,33.3,0,31,0,27.7
		c0-6.4,0-12.7,0-19.1c0-3.1,1.5-5.4,4.1-7C6.1,0.5,8.2,0,10.4,0C16.3,0,22.2,0,28.2,0z M28.4,7.7C28.4,7.7,28.4,7.7,28.4,7.7
		c-0.5,0-1.1,0-1.6,0c-3.5,0-7,0-10.6,0c-1.7,0-2,0.3-2,2.1c0,0,0,0.1,0,0.1c0,5.4,0,10.9,0,16.3c0,0.3,0,0.6,0,1
		c0.1,0.8,0.4,1.2,1.2,1.4c0.3,0,0.6,0,0.8,0c8.1,0,16.1,0,24.2,0c1.6,0,2-0.4,2-2c0-0.1,0-0.2,0-0.3c0-5.4,0-10.9,0-16.3
		c0-0.3,0-0.6,0-1c-0.1-0.8-0.5-1.1-1.2-1.2c-0.3,0-0.6,0-1,0C36.4,7.7,32.4,7.7,28.4,7.7z"/>
	<path d="M293.3,4.2c5.9,0,11.9,0,17.8,0c1.2,0,1.2,0,1.2,1.1c0,1.4,0,2.8,0,4.2c0,0.5-0.2,0.8-0.7,0.8c-0.3,0-0.6,0-1,0
		c-9.6,0-19.2,0-28.8,0c-0.4,0-0.8,0-1.2,0c-1.6,0-1.8,0.2-1.8,1.8c0,4.2,0,8.5,0,12.7c0,0.2,0,0.5,0,0.7c0.1,0.7,0.4,1,1.1,1.1
		c0.2,0,0.5,0,0.7,0c6.3,0,12.7,0,19,0c0.2,0,0.5,0,0.7,0c0.4,0,0.7-0.2,0.7-0.7c0-1.2,0-2.5,0-3.7c0-0.4-0.2-0.7-0.7-0.7
		c-0.3,0-0.6,0-0.9,0c-4.4,0-8.9,0-13.3,0c-0.2,0-0.5,0-0.7,0c-0.4,0-0.6-0.2-0.6-0.6c0-1.6,0-3.3,0-4.9c0-0.4,0.2-0.6,0.6-0.6
		c0.2,0,0.5,0,0.7,0c7.9,0,15.8,0,23.7,0c0.3,0,0.6,0,0.9,0c0.9,0.1,1.4,0.4,1.5,1.3c0,0.3,0,0.6,0,0.8c0,4.3,0,8.6,0,12.9
		c0,1.7-0.5,2.2-2.2,2.3c-0.3,0-0.6,0-0.9,0c-10.5,0-21,0-31.5,0c-1.5,0-3.1,0-4.6-0.4c-0.7-0.2-1.4-0.4-2-0.7
		c-2.3-1.2-3.6-3-3.6-5.6c0-1.6,0-3.1,0-4.7c0-3.3,0-6.6,0-9.9c0-3.7,1.8-5.9,5.4-6.9c1.6-0.4,3.2-0.4,4.9-0.4
		C282.9,4.2,288.1,4.2,293.3,4.2C293.3,4.2,293.3,4.2,293.3,4.2z"/>
	<path d="M217.7,18.5c0-4.2,0-8.4,0-12.6c0-0.3,0-0.6,0-0.9c0.1-0.8,0.3-1,1.1-1c0.2,0,0.4,0,0.6,0c3.9,0,7.7,0,11.6,0
		c0.9,0,1.5,0.3,2.2,0.9c5.5,5.6,11.1,11.1,16.6,16.7c0.3,0.3,0.6,0.9,1.1,0.7c0.6-0.2,0.3-0.9,0.3-1.3c0-5,0-10.1,0-15.1
		c0-0.2,0-0.5,0-0.7c0-1,0-1,1.1-1c3,0,6,0,9.1,0c1.1,0,1.1,0,1.1,1c0,8.4,0,16.8,0,25.2c0,1.8-0.7,2.5-2.4,2.5c-2.9,0-5.8,0-8.6,0
		c-0.8,0-1.6,0-2.5,0c-0.8,0-1.5-0.3-2.1-0.9c-0.3-0.3-0.6-0.5-0.8-0.8c-5.2-5.2-10.4-10.5-15.7-15.7c-0.3-0.3-0.6-0.9-1.1-0.7
		c-0.5,0.2-0.3,0.8-0.3,1.2c0,5.2,0,10.3,0,15.5c0,0.2,0,0.5,0,0.7c0,0.5-0.2,0.7-0.7,0.7c-3.3,0-6.6,0-9.9,0
		c-0.5,0-0.6-0.2-0.6-0.6c0-1,0-1.9,0-2.9C217.7,25.6,217.7,22.1,217.7,18.5z"/>
	<path d="M212.4,32.7c-0.3,0.2-0.6,0.1-0.9,0.1c-3.2,0-6.5,0-9.7,0c-0.6,0-1-0.2-1.4-0.7c-0.7-1.2-1.6-2.4-2.3-3.6
		c-0.3-0.5-0.6-0.7-1.3-0.7c-6.5,0-13.1,0-19.6,0c-0.6,0-1,0.2-1.3,0.7c-0.8,1.2-1.6,2.4-2.4,3.7c-0.2,0.4-0.5,0.6-1,0.6
		c-3.4,0-6.9,0-10.3,0c-0.2,0-0.4,0-0.5-0.2c0.1-0.3,0.3-0.6,0.5-0.9c5.7-8.8,11.4-17.6,17.1-26.4c0.5-0.9,1.2-1.2,2.2-1.2
		c3.7,0.1,7.4,0.1,11.1,0c1,0,1.6,0.4,2.2,1.2c5.7,8.8,11.4,17.6,17.1,26.4C212,31.9,212.3,32.2,212.4,32.7z M180.3,21.6
		c2.3,0.2,12.4,0.1,13.2-0.1c-2.2-3.3-4.3-6.7-6.6-10.1C184.7,14.9,182.6,18.2,180.3,21.6z"/>
</svg>
