<svg version="1.1" id="Layer_1" xmlns="http://www.w3.org/2000/svg" xmlns:xlink="http://www.w3.org/1999/xlink" x="0px" y="0px"
	 viewBox="0 0 374.2 50.7" style="enable-background:new 0 0 374.2 50.7;" xml:space="preserve" fill="white">
			<path d="M21.5,50.7c0-4.2,0-8.5,0-12.7c0-9.6,0-19.2,0-28.7c0-0.4,0-0.7,0-1.1c0-0.3-0.1-0.4-0.3-0.4c-0.1,0-0.3,0-0.4,0
				c-5.2,0-10.4,0-15.6,0c-0.4,0-0.7-0.1-0.9-0.5C3.1,5.3,1.8,3.4,0.5,1.5C0.3,1.2,0.2,1,0.1,0.7C-0.1,0.4,0,0.1,0.4,0
				c0.2,0,0.3,0,0.5,0c21.8,0,43.6,0,65.4,0C67,0,67,0,67,0.7c0,7.4,0,14.9,0,22.3c0,0.3,0,0.6-0.1,0.9c-0.2,1.1,0.5,2,1.6,2
				c0.1,0,0.1,0,0.2,0c7.9,0,15.8,0,23.8,0c1.3,0,2-0.8,1.8-2.1c0-0.2,0-0.5,0-0.8c0-7.5,0-15,0-22.4c0-0.6,0-0.6,0.6-0.6
				c4.1,0,8.3,0,12.4,0c0.6,0,0.6,0.1,0.6,0.6c0,0.2,0,0.5,0,0.7c0,8.3,0,16.6,0.1,24.9c0,0.9,0,1.9-0.1,2.8
				c-0.2,2.6-2.8,4.9-5.4,4.9c-14.4,0-28.9,0-43.3,0c-1.6,0-2.9-0.6-3.9-1.8c-0.4-0.4-0.7-0.9-0.9-1.4c-0.6-1.2-0.9-2.4-0.9-3.7
				c0.1-6.1,0-12.1,0-18.2c0-0.2,0-0.4,0-0.6c0.1-0.7,0.1-0.7-0.6-0.7c-5.7,0-11.3,0-17,0c-0.9,0-1,0.1-1,1c0,11.2,0,22.3,0,33.5
				c0,0.5-0.2,0.7-0.6,1c-4,2.4-7.9,4.8-11.9,7.3c-0.1,0.1-0.3,0.2-0.4,0.3C21.7,50.7,21.6,50.7,21.5,50.7z"/>
			<path d="M374.2,33.9c-0.2,0-0.4,0.1-0.5,0.1c-3.8,0-7.7,0-11.5,0c-0.3,0-0.5-0.1-0.7-0.4c-1.3-2.1-2.7-4.1-4-6.2
				c-0.2-0.3-0.4-0.4-0.7-0.4c-7.5,0-15,0-22.5,0c-0.4,0-0.6,0.1-0.8,0.4c-1.4,1.9-2.8,3.9-4.1,5.8c-0.3,0.5-0.8,0.7-1.4,0.7
				c-14.4,0-28.9,0-43.3,0c-0.5,0-1.1-0.3-1.6-0.5c-1.7-0.9-2.8-2.3-3.4-4.1c-0.1-0.2-0.1-0.5-0.1-0.8c0-9.4,0-18.7,0-28.1
				c0-0.1,0-0.3,0-0.5c4.8,0,9.7,0,14.5,0c0,0.2,0,0.4,0,0.7c0,7.8,0,15.6,0,23.4c0,1.1,0.6,1.8,1.8,1.8c7.8,0,15.7,0,23.5,0
				c0.4,0,0.6-0.1,0.7-0.4c3.8-5.9,7.7-11.8,11.5-17.7c1.6-2.4,3.2-4.9,4.7-7.3c0.2-0.3,0.4-0.4,0.8-0.4c5.1,0,10.1,0,15.2,0
				c0.4,0,0.6,0.1,0.8,0.4c4.2,6.5,8.3,13,12.5,19.5c2.7,4.3,5.5,8.6,8.2,12.9c0.1,0.2,0.2,0.3,0.4,0.5
				C374.2,33.5,374.2,33.7,374.2,33.9z M337.5,20.4c5.2,0,10.3,0,15.5,0c-2.7-4.1-5.4-8.2-8.1-12.3C342.4,12.3,340,16.3,337.5,20.4z
				"/>
			<path d="M135.8,18.6c0-2.5,0-4.8,0-7.3c0.2,0,0.4,0,0.6,0c7.8,0,15.6,0,23.3,0c1,0,1.9,0.3,2.6,0.8c1,0.7,1.9,1.7,2.4,2.9
				c0.1,0.3,0.1,0.7,0.1,1.1c0,3.8,0,7.7,0,11.5c0,0.3,0,0.7,0,1c0,2.8-2.6,5-4.7,5.4c-0.4,0.1-0.7,0.1-1.1,0.1c-13.5,0-27,0-40.5,0
				c-1.6,0-2.9-0.6-4-1.8c-0.5-0.6-1-1.3-1.3-2c-0.3-0.5-0.4-1.2-0.4-1.8c-0.1-7-0.2-13.9-0.2-20.9c0-1.3,0.1-2.6,0.7-3.7
				c0.9-1.7,2.3-2.9,4.2-3.6c0.8-0.2,1.5-0.4,2.3-0.3c14.8,0,29.6,0,44.4,0c0.5,0,0.6,0.2,0.6,0.6c0,2.3,0,4.6,0,6.9
				c0,0.7,0,0.7-0.7,0.7c-12,0-23.9,0-35.9,0c-0.9,0-1.4,0.5-1.4,1.4c0,4.9,0,9.8,0,14.7c0,0.9,0.6,1.5,1.5,1.5c7.1,0,14.3,0,21.4,0
				c0.8,0,1.4-0.6,1.4-1.4c0-1.5,0-3,0-4.5c0-0.7-0.7-1.3-1.5-1.3c-1.1,0-2.2,0-3.3,0c-3.3,0-6.7,0-10,0
				C136.2,18.6,136,18.6,135.8,18.6z"/>
			<path d="M222,25.9c0,2.7,0,5.4,0,8.1c-0.2,0-0.4,0-0.5,0c-15.4,0-30.8,0-46.2,0c-0.3,0-0.6-0.1-0.8-0.2c-1.9-0.9-3.2-2.4-3.8-4.4
				c-0.3-0.9-0.4-1.8-0.4-2.8c0-6.7,0.1-13.4,0-20.1c0-1.6,0.6-2.9,1.6-4.1c1.5-1.8,3.5-2.6,5.8-2.5c0.3,0,0.5,0,0.8,0
				c14.3,0,28.6,0,42.8,0c0.2,0,0.4,0,0.7,0c0,0.2,0,0.3,0,0.5c0,2.4,0,4.8,0,7.2c0,0.4-0.1,0.6-0.6,0.6c-11.7,0-23.3,0-35,0
				c-0.4,0-0.7-0.1-1.1-0.1c-0.8,0-1.4,0.6-1.4,1.4c0,0.9,0,1.7,0,2.6c0,0.4,0.3,0.9,0.7,0.9c0.5,0.1,0.9,0.1,1.4,0.1
				c10.9,0,21.7,0,32.6,0c0.7,0,0.7,0,0.7,0.7c0,2.1,0,4.2,0,6.3c0,0.6,0,0.6-0.6,0.6c-11.1,0-22.1,0-33.2,0c-0.3,0-0.6,0-0.9,0.2
				c-0.4,0.2-0.8,0.5-0.7,1.2c0.1,0.7,0,1.4,0,2.2c0,1,0.6,1.5,1.5,1.5c11.9,0,23.8,0,35.8,0C221.5,25.9,221.8,25.9,222,25.9z"/>
			<path d="M242.7,0c0,0.2,0,0.4,0,0.6c0,7.7,0,15.3,0,23c0,0.3,0,0.6,0,0.9c0,0.8,0.6,1.4,1.4,1.4c0.2,0,0.3,0,0.5,0
				c9.5,0,19,0,28.5,0c0.8,0,0.7,0,0.7,0.7c0,2,0,4.1,0,6.1c0,0.2,0,0.5,0,0.7c0,0.5-0.2,0.6-0.6,0.6c-13.3,0-26.7,0-40,0
				c-1.3,0-2.3-0.6-3.3-1.4c-1-0.8-1.7-1.8-2.1-3c-0.1-0.4-0.2-0.9-0.2-1.3c-0.3-3.6-0.2-7.2-0.2-10.8c0-4.8,0-9.6,0-14.4
				c0-0.8,0-1.7,0-2.5c0-0.3,0.1-0.5,0.4-0.4c0.7,0,1.3,0,2,0c4.1,0,8.1,0,12.2,0C242.2,0,242.4,0,242.7,0z"/>
</svg>
